<svg width="142" height="70" viewBox="0 0 142 70" fill="none" xmlns="http://www.w3.org/2000/svg">
<path d="M44 46H36L30 64L18 28L12 46H4" stroke="#007BFF" stroke-width="1.4" stroke-linecap="round" stroke-linejoin="round"/>
<path d="M36.5598 36.192C36.0638 36.192 35.6798 36.056 35.4078 35.784C35.1518 35.496 35.0238 35.104 35.0238 34.608V20.64C35.0238 20.128 35.1598 19.744 35.4318 19.488C35.7038 19.216 36.0878 19.08 36.5838 19.08H42.3678C44.2238 19.08 45.6558 19.528 46.6638 20.424C47.6718 21.304 48.1758 22.544 48.1758 24.144C48.1758 25.184 47.9438 26.08 47.4798 26.832C47.0318 27.584 46.3758 28.16 45.5118 28.56C44.6478 28.96 43.5998 29.16 42.3678 29.16L42.5838 28.8H43.3758C44.0318 28.8 44.5998 28.96 45.0798 29.28C45.5758 29.6 46.0078 30.104 46.3758 30.792L48.1758 34.128C48.3678 34.464 48.4558 34.792 48.4398 35.112C48.4238 35.432 48.3038 35.696 48.0798 35.904C47.8558 36.096 47.5278 36.192 47.0958 36.192C46.6638 36.192 46.3118 36.104 46.0398 35.928C45.7678 35.736 45.5278 35.448 45.3198 35.064L42.8958 30.6C42.6078 30.056 42.2638 29.696 41.8638 29.52C41.4798 29.328 40.9838 29.232 40.3758 29.232H38.0958V34.608C38.0958 35.104 37.9678 35.496 37.7118 35.784C37.4558 36.056 37.0718 36.192 36.5598 36.192ZM38.0958 26.952H41.8398C42.9438 26.952 43.7758 26.728 44.3358 26.28C44.9118 25.816 45.1998 25.128 45.1998 24.216C45.1998 23.32 44.9118 22.648 44.3358 22.2C43.7758 21.736 42.9438 21.504 41.8398 21.504H38.0958V26.952ZM53.1089 36C52.5809 36 52.1729 35.864 51.8849 35.592C51.6129 35.304 51.4769 34.896 51.4769 34.368V20.712C51.4769 20.184 51.6129 19.784 51.8849 19.512C52.1729 19.224 52.5809 19.08 53.1089 19.08H61.6769C62.0769 19.08 62.3809 19.184 62.5889 19.392C62.8129 19.6 62.9249 19.896 62.9249 20.28C62.9249 20.68 62.8129 20.992 62.5889 21.216C62.3809 21.424 62.0769 21.528 61.6769 21.528H54.4289V26.184H61.1489C61.5649 26.184 61.8769 26.288 62.0849 26.496C62.2929 26.704 62.3969 27.008 62.3969 27.408C62.3969 27.808 62.2929 28.112 62.0849 28.32C61.8769 28.528 61.5649 28.632 61.1489 28.632H54.4289V33.552H61.6769C62.0769 33.552 62.3809 33.656 62.5889 33.864C62.8129 34.072 62.9249 34.376 62.9249 34.776C62.9249 35.176 62.8129 35.48 62.5889 35.688C62.3809 35.896 62.0769 36 61.6769 36H53.1089ZM67.2372 36.192C66.7892 36.192 66.4452 36.064 66.2052 35.808C65.9652 35.552 65.8452 35.2 65.8452 34.752V20.328C65.8452 19.864 65.9732 19.512 66.2292 19.272C66.4852 19.016 66.8372 18.888 67.2852 18.888C67.6852 18.888 67.9972 18.968 68.2212 19.128C68.4612 19.272 68.6772 19.528 68.8692 19.896L74.7972 30.864H74.0292L79.9572 19.896C80.1492 19.528 80.3572 19.272 80.5812 19.128C80.8052 18.968 81.1172 18.888 81.5172 18.888C81.9652 18.888 82.3092 19.016 82.5492 19.272C82.7892 19.512 82.9092 19.864 82.9092 20.328V34.752C82.9092 35.2 82.7892 35.552 82.5492 35.808C82.3252 36.064 81.9812 36.192 81.5172 36.192C81.0692 36.192 80.7252 36.064 80.4852 35.808C80.2452 35.552 80.1252 35.2 80.1252 34.752V23.64H80.6532L75.6132 32.832C75.4532 33.104 75.2852 33.304 75.1092 33.432C74.9332 33.56 74.6932 33.624 74.3892 33.624C74.0852 33.624 73.8372 33.56 73.6452 33.432C73.4532 33.288 73.2852 33.088 73.1412 32.832L68.0532 23.616H68.6292V34.752C68.6292 35.2 68.5092 35.552 68.2692 35.808C68.0452 36.064 67.7012 36.192 67.2372 36.192ZM94.2172 36.24C92.5852 36.24 91.1532 35.88 89.9212 35.16C88.7052 34.44 87.7612 33.432 87.0892 32.136C86.4172 30.824 86.0812 29.288 86.0812 27.528C86.0812 26.2 86.2732 25.008 86.6572 23.952C87.0412 22.88 87.5852 21.968 88.2892 21.216C89.0092 20.448 89.8652 19.864 90.8572 19.464C91.8652 19.048 92.9852 18.84 94.2172 18.84C95.8652 18.84 97.2972 19.2 98.5132 19.92C99.7292 20.624 100.673 21.624 101.345 22.92C102.017 24.216 102.353 25.744 102.353 27.504C102.353 28.832 102.161 30.032 101.777 31.104C101.393 32.176 100.841 33.096 100.121 33.864C99.4172 34.632 98.5612 35.224 97.5532 35.64C96.5612 36.04 95.4492 36.24 94.2172 36.24ZM94.2172 33.6C95.2572 33.6 96.1372 33.36 96.8572 32.88C97.5932 32.4 98.1532 31.704 98.5372 30.792C98.9372 29.88 99.1372 28.792 99.1372 27.528C99.1372 25.608 98.7052 24.12 97.8412 23.064C96.9932 22.008 95.7852 21.48 94.2172 21.48C93.1932 21.48 92.3132 21.72 91.5772 22.2C90.8412 22.664 90.2732 23.352 89.8732 24.264C89.4892 25.16 89.2972 26.248 89.2972 27.528C89.2972 29.432 89.7292 30.92 90.5932 31.992C91.4572 33.064 92.6652 33.6 94.2172 33.6ZM110.062 36.192C109.566 36.192 109.182 36.056 108.91 35.784C108.654 35.496 108.526 35.104 108.526 34.608V21.648H103.846C103.43 21.648 103.102 21.536 102.862 21.312C102.638 21.072 102.526 20.752 102.526 20.352C102.526 19.936 102.638 19.624 102.862 19.416C103.102 19.192 103.43 19.08 103.846 19.08H116.278C116.694 19.08 117.014 19.192 117.238 19.416C117.478 19.624 117.598 19.936 117.598 20.352C117.598 20.752 117.478 21.072 117.238 21.312C117.014 21.536 116.694 21.648 116.278 21.648H111.598V34.608C111.598 35.104 111.47 35.496 111.214 35.784C110.958 36.056 110.574 36.192 110.062 36.192ZM120.984 36C120.456 36 120.048 35.864 119.76 35.592C119.488 35.304 119.352 34.896 119.352 34.368V20.712C119.352 20.184 119.488 19.784 119.76 19.512C120.048 19.224 120.456 19.08 120.984 19.08H129.552C129.952 19.08 130.256 19.184 130.464 19.392C130.688 19.6 130.8 19.896 130.8 20.28C130.8 20.68 130.688 20.992 130.464 21.216C130.256 21.424 129.952 21.528 129.552 21.528H122.304V26.184H129.024C129.44 26.184 129.752 26.288 129.96 26.496C130.168 26.704 130.272 27.008 130.272 27.408C130.272 27.808 130.168 28.112 129.96 28.32C129.752 28.528 129.44 28.632 129.024 28.632H122.304V33.552H129.552C129.952 33.552 130.256 33.656 130.464 33.864C130.688 34.072 130.8 34.376 130.8 34.776C130.8 35.176 130.688 35.48 130.464 35.688C130.256 35.896 129.952 36 129.552 36H120.984Z" fill="#333435"/>
<path d="M53.256 51.128C52.9253 51.128 52.6693 51.0373 52.488 50.856C52.3173 50.664 52.232 50.4027 52.232 50.072V40.648C52.232 40.3067 52.3173 40.0453 52.488 39.864C52.6693 39.6827 52.9253 39.592 53.256 39.592C53.5867 39.592 53.8373 39.6827 54.008 39.864C54.1893 40.0453 54.28 40.3067 54.28 40.648V44.424H60.088V40.648C60.088 40.3067 60.1733 40.0453 60.344 39.864C60.5253 39.6827 60.7813 39.592 61.112 39.592C61.4427 39.592 61.6933 39.6827 61.864 39.864C62.0453 40.0453 62.136 40.3067 62.136 40.648V50.072C62.136 50.4027 62.0453 50.664 61.864 50.856C61.6933 51.0373 61.4427 51.128 61.112 51.128C60.7813 51.128 60.5253 51.0373 60.344 50.856C60.1733 50.664 60.088 50.4027 60.088 50.072V46.136H54.28V50.072C54.28 50.4027 54.1947 50.664 54.024 50.856C53.8533 51.0373 53.5973 51.128 53.256 51.128ZM65.695 51C65.343 51 65.071 50.9093 64.879 50.728C64.6977 50.536 64.607 50.264 64.607 49.912V40.808C64.607 40.456 64.6977 40.1893 64.879 40.008C65.071 39.816 65.343 39.72 65.695 39.72H71.407C71.6737 39.72 71.8763 39.7893 72.015 39.928C72.1643 40.0667 72.239 40.264 72.239 40.52C72.239 40.7867 72.1643 40.9947 72.015 41.144C71.8763 41.2827 71.6737 41.352 71.407 41.352H66.575V44.456H71.055C71.3323 44.456 71.5403 44.5253 71.679 44.664C71.8177 44.8027 71.887 45.0053 71.887 45.272C71.887 45.5387 71.8177 45.7413 71.679 45.88C71.5403 46.0187 71.3323 46.088 71.055 46.088H66.575V49.368H71.407C71.6737 49.368 71.8763 49.4373 72.015 49.576C72.1643 49.7147 72.239 49.9173 72.239 50.184C72.239 50.4507 72.1643 50.6533 72.015 50.792C71.8763 50.9307 71.6737 51 71.407 51H65.695ZM74.0628 51.128C73.8068 51.128 73.5988 51.0693 73.4388 50.952C73.2894 50.8347 73.1988 50.68 73.1668 50.488C73.1348 50.2853 73.1721 50.0613 73.2788 49.816L77.5028 40.456C77.6414 40.1467 77.8068 39.928 77.9988 39.8C78.2014 39.6613 78.4308 39.592 78.6868 39.592C78.9321 39.592 79.1508 39.6613 79.3428 39.8C79.5454 39.928 79.7161 40.1467 79.8548 40.456L84.0948 49.816C84.2121 50.0613 84.2548 50.2853 84.2228 50.488C84.1908 50.6907 84.1001 50.8507 83.9508 50.968C83.8014 51.0747 83.6041 51.128 83.3588 51.128C83.0601 51.128 82.8254 51.0587 82.6548 50.92C82.4948 50.7707 82.3508 50.5467 82.2228 50.248L81.1828 47.832L82.0468 48.392H75.2948L76.1588 47.832L75.1348 50.248C74.9961 50.5573 74.8521 50.7813 74.7028 50.92C74.5534 51.0587 74.3401 51.128 74.0628 51.128ZM78.6548 41.944L76.4148 47.272L75.9988 46.76H81.3428L80.9427 47.272L78.6868 41.944H78.6548ZM86.897 51C86.5663 51 86.3103 50.9093 86.129 50.728C85.9477 50.536 85.857 50.2747 85.857 49.944V40.712C85.857 40.3707 85.9423 40.1147 86.113 39.944C86.2943 39.7627 86.5503 39.672 86.881 39.672C87.2117 39.672 87.4623 39.7627 87.633 39.944C87.8143 40.1147 87.905 40.3707 87.905 40.712V49.256H92.545C92.833 49.256 93.0517 49.3307 93.201 49.48C93.361 49.6293 93.441 49.8427 93.441 50.12C93.441 50.3973 93.361 50.616 93.201 50.776C93.0517 50.9253 92.833 51 92.545 51H86.897ZM96.5073 51.128C96.1766 51.128 95.9206 51.0373 95.7393 50.856C95.5686 50.664 95.4833 50.4027 95.4833 50.072V41.432H92.3633C92.0859 41.432 91.8673 41.3573 91.7073 41.208C91.5579 41.048 91.4832 40.8347 91.4832 40.568C91.4832 40.2907 91.5579 40.0827 91.7073 39.944C91.8673 39.7947 92.0859 39.72 92.3633 39.72H100.651C100.929 39.72 101.142 39.7947 101.291 39.944C101.451 40.0827 101.531 40.2907 101.531 40.568C101.531 40.8347 101.451 41.048 101.291 41.208C101.142 41.3573 100.929 41.432 100.651 41.432H97.5313V50.072C97.5313 50.4027 97.4459 50.664 97.2753 50.856C97.1046 51.0373 96.8486 51.128 96.5073 51.128ZM103.725 51.128C103.394 51.128 103.138 51.0373 102.957 50.856C102.786 50.664 102.701 50.4027 102.701 50.072V40.648C102.701 40.3067 102.786 40.0453 102.957 39.864C103.138 39.6827 103.394 39.592 103.725 39.592C104.055 39.592 104.306 39.6827 104.477 39.864C104.658 40.0453 104.749 40.3067 104.749 40.648V44.424H110.557V40.648C110.557 40.3067 110.642 40.0453 110.813 39.864C110.994 39.6827 111.25 39.592 111.581 39.592C111.911 39.592 112.162 39.6827 112.333 39.864C112.514 40.0453 112.605 40.3067 112.605 40.648V50.072C112.605 50.4027 112.514 50.664 112.333 50.856C112.162 51.0373 111.911 51.128 111.581 51.128C111.25 51.128 110.994 51.0373 110.813 50.856C110.642 50.664 110.557 50.4027 110.557 50.072V46.136H104.749V50.072C104.749 50.4027 104.663 50.664 104.493 50.856C104.322 51.0373 104.066 51.128 103.725 51.128Z" fill="#007BFF"/>
</svg>
